<?xml version="1.0" encoding="iso-8859-1"?>
<!-- Generator: Adobe Illustrator 18.0.0, SVG Export Plug-In . SVG Version: 6.00 Build 0)  -->
<!DOCTYPE svg PUBLIC "-//W3C//DTD SVG 1.1//EN" "http://www.w3.org/Graphics/SVG/1.1/DTD/svg11.dtd">
<svg version="1.1" id="Capa_1" xmlns="http://www.w3.org/2000/svg" xmlns:xlink="http://www.w3.org/1999/xlink" x="0px" y="0px"
	 viewBox="0 0 192.614 192.614" style="enable-background:new 0 0 192.614 192.614;" xml:space="preserve">
<g>
	<path d="M180.199,56.557c-6.455-10.338-17.598-16.51-29.805-16.51c-6.541,0-12.951,1.844-18.536,5.332
		c-7.949,4.963-13.489,12.726-15.601,21.857c-2.112,9.131-0.542,18.535,4.42,26.479c11.027,17.655,11.879,40.104,2.224,58.587
		c-0.047,0.09-0.093,0.181-0.136,0.273c-2.299,4.874-7.083,15.016,0.874,22.893c3.348,3.314,7.725,5.066,12.659,5.066
		c0.002,0,0,0,0,0c20.421,0,47.3-30.739,54.267-62.055C195.358,96.929,191.677,74.937,180.199,56.557z M175.923,115.224
		c-2.804,12.604-9.572,25.742-18.57,36.044c-8.608,9.856-16.776,14.268-21.053,14.268c-1.117,0-1.645-0.298-2.066-0.693
		c0-0.596,0.32-2.078,2.037-5.735c12.028-23.149,10.934-51.236-2.87-73.337c-2.84-4.545-3.737-9.927-2.528-15.153
		c1.209-5.229,4.38-9.672,8.931-12.514c3.2-1.999,6.863-3.055,10.592-3.055c6.999,0,13.385,3.535,17.082,9.455
		C176.857,79.524,179.857,97.537,175.923,115.224z"/>
	<circle cx="161.516" cy="108.673" r="8.043"/>
	<circle cx="155.082" cy="135.649" r="6.436"/>
	<circle cx="151.864" cy="78.346" r="9.651"/>
	<circle cx="51.805" cy="89.087" r="11.552"/>
	<path d="M63.774,63.671c5.096,0.312,9.479-3.565,9.791-8.659c0.312-5.095-3.567-9.478-8.663-9.79
		c-5.092-0.311-9.476,3.566-9.787,8.661C54.804,58.977,58.682,63.359,63.774,63.671z"/>
	<circle cx="61.965" cy="129.37" r="13.862"/>
	<path d="M104.498,72.324l0.228-0.434c0.05-0.095,0.098-0.19,0.144-0.287l0.209-0.444c2.041-4.327,4.233-9.633,5.01-16.188
		c1.415-11.915-2.443-23.065-10.861-31.397c-7.488-7.414-17.513-11.497-28.228-11.497c-15.512,0-31.621,8.664-45.36,24.396
		C14.205,49.565,5.906,65.78,2.27,82.13c-5.33,23.964-1.2,48.476,11.629,69.021c9.913,15.875,27.015,25.352,45.746,25.352
		c10.074,0,19.931-2.83,28.505-8.184c12.208-7.623,20.718-19.545,23.962-33.569c3.245-14.026,0.832-28.474-6.794-40.681
		C101.228,87.519,100.916,79.182,104.498,72.324z M97.498,131.369c-2.342,10.122-8.483,18.726-17.294,24.227
		c-6.188,3.864-13.298,5.907-20.56,5.907c-13.523,0-25.869-6.84-33.023-18.297c-10.731-17.186-14.18-37.72-9.709-57.819
		c3.101-13.944,10.212-27.81,20.025-39.044C47.785,33.92,59.883,27.079,71,27.079c6.736,0,13.013,2.541,17.675,7.157
		c5.061,5.009,7.376,11.746,6.518,18.97c-0.523,4.417-2.154,8.319-3.682,11.556l-0.301,0.605
		c-6.041,11.564-5.51,25.607,1.386,36.649C98.098,110.823,99.839,121.248,97.498,131.369z"/>
</g>
<g>
</g>
<g>
</g>
<g>
</g>
<g>
</g>
<g>
</g>
<g>
</g>
<g>
</g>
<g>
</g>
<g>
</g>
<g>
</g>
<g>
</g>
<g>
</g>
<g>
</g>
<g>
</g>
<g>
</g>
</svg>
