<?xml version="1.0" encoding="iso-8859-1"?>
<!-- Generator: Adobe Illustrator 18.0.0, SVG Export Plug-In . SVG Version: 6.00 Build 0)  -->
<!DOCTYPE svg PUBLIC "-//W3C//DTD SVG 1.1//EN" "http://www.w3.org/Graphics/SVG/1.1/DTD/svg11.dtd">
<svg version="1.1" id="Capa_1" xmlns="http://www.w3.org/2000/svg" xmlns:xlink="http://www.w3.org/1999/xlink" x="0px" y="0px"
	 viewBox="0 0 208.093 208.093" style="enable-background:new 0 0 208.093 208.093;" xml:space="preserve">
<g>
	<circle cx="113.477" cy="106.62" r="11.55"/>
	<path d="M101.508,132.035c-5.096-0.313-9.479,3.564-9.791,8.658c-0.312,5.096,3.567,9.479,8.663,9.791
		c5.092,0.311,9.476-3.566,9.787-8.662C110.479,136.729,106.601,132.346,101.508,132.035z"/>
	<path d="M102.471,80.172c7.64,0.467,14.214-5.348,14.682-12.99c0.467-7.643-5.35-14.215-12.989-14.682
		c-7.643-0.469-14.213,5.348-14.68,12.988C89.016,73.133,94.83,79.705,102.471,80.172z"/>
	<path d="M182.604,74.911c0-4.142-3.357-7.5-7.5-7.5h-17.843c-2.237-6.52-5.203-12.823-8.926-18.785
		c-0.757-1.212-1.569-2.373-2.407-3.509l11.68-11.68c2.929-2.929,2.929-7.678-0.001-10.606c-2.928-2.93-7.677-2.929-10.606,0
		l-11.572,11.573c-6.522-5.015-14.122-8.483-22.297-10.083V7.5c0-4.142-3.358-7.5-7.5-7.5c-4.143,0-7.5,3.358-7.5,7.5v16.001
		c-8.476,0.715-16.681,3.431-23.961,7.976c-0.299,0.186-0.585,0.387-0.879,0.579L61.353,20.118c-2.93-2.929-7.678-2.929-10.607,0
		c-2.929,2.929-2.929,7.678,0,10.606l11.196,11.197c-5.67,6.544-9.699,14.412-11.706,23.088c-0.185,0.799-0.346,1.601-0.494,2.402
		H32.989c-4.143,0-7.5,3.358-7.5,7.5c0,4.142,3.357,7.5,7.5,7.5h16.108c0.795,8.155,3.457,16.08,7.925,23.232
		c2.802,4.486,3.826,9.811,3.04,14.922H42.396c-4.143,0-7.5,3.358-7.5,7.5s3.357,7.5,7.5,7.5h11.959
		c-0.93,2.736-1.701,5.759-2.098,9.114c-0.939,7.912,0.461,15.481,3.967,22.115l-12.229,12.23
		c-2.929,2.929-2.929,7.678,0.001,10.606c1.464,1.465,3.384,2.197,5.303,2.197c1.919,0,3.839-0.732,5.304-2.197l11.178-11.178
		c7.114,5.872,16.047,9.075,25.523,9.075c2.23,0,4.474-0.2,6.721-0.554v13.621c0,4.142,3.358,7.5,7.5,7.5c4.143,0,7.5-3.358,7.5-7.5
		V182.04c7.068-3.538,13.971-8.731,20.423-15.445l10.892,10.892c1.465,1.465,3.384,2.197,5.304,2.197
		c1.919,0,3.839-0.732,5.303-2.197c2.93-2.929,2.93-7.677,0.001-10.606l-11.896-11.896c4.335-6.088,8.042-12.638,10.994-19.42
		h18.303c4.143,0,7.5-3.358,7.5-7.5s-3.357-7.5-7.5-7.5h-13.119c0.258-1,0.499-2.001,0.722-3.003
		c2.617-11.764,2.939-23.658,1.08-35.151h14.074C179.247,82.411,182.604,79.053,182.604,74.911z M91.303,172.526L91.303,172.526
		c-6.725,0-12.99-2.537-17.645-7.145c-5.052-4.999-7.362-11.724-6.506-18.938c0.522-4.41,2.15-8.304,3.675-11.535l0.14-0.298
		l0.161-0.306c0.534-1.022,0.998-2.069,1.43-3.126c0.094-0.206,0.178-0.417,0.254-0.632c4.15-10.741,3.09-22.991-3.067-32.85
		c-5.494-8.794-7.232-19.202-4.896-29.307c2.338-10.106,8.47-18.696,17.266-24.189c6.18-3.858,13.277-5.897,20.527-5.897
		c13.502,0,25.827,6.829,32.971,18.268c10.716,17.161,14.159,37.665,9.694,57.734c-3.098,13.926-10.198,27.772-19.994,38.988
		C114.48,165.696,102.402,172.526,91.303,172.526z"/>
</g>
<g>
</g>
<g>
</g>
<g>
</g>
<g>
</g>
<g>
</g>
<g>
</g>
<g>
</g>
<g>
</g>
<g>
</g>
<g>
</g>
<g>
</g>
<g>
</g>
<g>
</g>
<g>
</g>
<g>
</g>
</svg>
