<?xml version="1.0" encoding="iso-8859-1"?>
<!-- Generator: Adobe Illustrator 18.0.0, SVG Export Plug-In . SVG Version: 6.00 Build 0)  -->
<!DOCTYPE svg PUBLIC "-//W3C//DTD SVG 1.1//EN" "http://www.w3.org/Graphics/SVG/1.1/DTD/svg11.dtd">
<svg version="1.1" id="Capa_1" xmlns="http://www.w3.org/2000/svg" xmlns:xlink="http://www.w3.org/1999/xlink" x="0px" y="0px"
	 viewBox="0 0 210.662 210.662" style="enable-background:new 0 0 210.662 210.662;" xml:space="preserve">
<g>
	<path d="M210.662,105.331c0-10.792-7.623-19.833-17.765-22.034c-2.143-8.574-5.516-16.71-10.074-24.301
		c2.331-3.606,3.593-7.804,3.593-12.199c0-6.023-2.346-11.687-6.605-15.946c-4.259-4.259-9.922-6.605-15.946-6.605
		c-4.395,0-8.592,1.262-12.198,3.593c-7.593-4.558-15.729-7.931-24.302-10.075C125.165,7.622,116.123,0,105.331,0
		C94.539,0,85.497,7.622,83.296,17.765c-8.573,2.143-16.709,5.516-24.301,10.074c-3.607-2.331-7.804-3.593-12.2-3.593
		c-6.023,0-11.687,2.346-15.945,6.605c-4.26,4.26-6.605,9.923-6.605,15.946c-0.001,4.396,1.262,8.594,3.593,12.2
		c-4.558,7.591-7.93,15.727-10.073,24.3C7.623,85.498,0,94.539,0,105.331c0,10.793,7.623,19.835,17.766,22.036
		c2.143,8.572,5.515,16.708,10.072,24.299c-2.33,3.606-3.593,7.803-3.593,12.199c0,6.023,2.346,11.687,6.605,15.946
		c4.259,4.259,9.922,6.605,15.946,6.605c4.396,0,8.592-1.262,12.198-3.593c7.591,4.558,15.728,7.931,24.301,10.075
		c2.201,10.142,11.243,17.764,22.035,17.764c10.792,0,19.834-7.622,22.035-17.765c8.572-2.143,16.708-5.516,24.3-10.074
		c3.606,2.331,7.803,3.593,12.199,3.593c6.023,0,11.687-2.346,15.947-6.606c7.63-7.631,8.627-19.413,3.01-28.143
		c4.558-7.591,7.931-15.727,10.074-24.301C203.04,125.166,210.662,116.124,210.662,105.331z M163.865,141.315
		c-6.023,0-11.686,2.345-15.946,6.604c-6.187,6.188-8,15.1-5.48,22.905c-5.378,3.061-11.068,5.421-17.021,7.06
		c-3.735-7.307-11.334-12.323-20.088-12.323c-8.754,0-16.353,5.018-20.088,12.324c-5.954-1.639-11.644-3.999-17.021-7.06
		c2.521-7.806,0.708-16.718-5.479-22.905c-4.259-4.26-9.923-6.606-15.947-6.606c-2.404,0-4.745,0.39-6.968,1.109
		c-3.056-5.372-5.413-11.057-7.049-17.003c7.306-3.735,12.323-11.335,12.323-20.088c0-8.753-5.017-16.352-12.324-20.087
		c1.637-5.948,3.995-11.633,7.05-17.005c2.223,0.72,4.563,1.109,6.967,1.109c6.024,0,11.687-2.346,15.947-6.606
		c6.187-6.188,8-15.1,5.479-22.905c5.377-3.061,11.067-5.422,17.021-7.06c3.735,7.307,11.334,12.325,20.088,12.325
		c8.754,0,16.353-5.018,20.088-12.325c5.952,1.639,11.643,3.999,17.021,7.06c-2.521,7.805-0.708,16.718,5.48,22.906
		c4.259,4.259,9.922,6.604,15.945,6.604c2.404,0,4.745-0.389,6.968-1.109c3.057,5.372,5.413,11.058,7.051,17.006
		c-7.307,3.735-12.324,11.333-12.324,20.087c0,8.754,5.017,16.354,12.323,20.089c-1.637,5.947-3.995,11.632-7.05,17.004
		C168.61,141.704,166.269,141.315,163.865,141.315z M188.111,112.883c-0.25,0-0.496-0.014-0.739-0.038
		c-0.016-0.001-0.031-0.003-0.047-0.004c-3.795-0.395-6.765-3.612-6.765-7.51c0-4.163,3.388-7.55,7.551-7.55
		c4.163,0,7.551,3.387,7.551,7.55C195.662,109.495,192.275,112.883,188.111,112.883z M169.205,41.458
		c1.426,1.426,2.212,3.322,2.212,5.339c0,2.017-0.786,3.913-2.211,5.339c-0.168,0.168-0.343,0.325-0.523,0.475
		c-0.024,0.021-0.049,0.039-0.073,0.06c-1.339,1.086-2.996,1.677-4.744,1.677c-2.017,0-3.913-0.785-5.339-2.211
		c-2.944-2.944-2.944-7.734,0.001-10.679c1.426-1.426,3.322-2.212,5.338-2.212S167.778,40.031,169.205,41.458z M105.331,15
		c4.164,0,7.551,3.387,7.551,7.55c0,0.253-0.014,0.503-0.038,0.75c-0.001,0.01-0.002,0.02-0.002,0.029
		c-0.392,3.8-3.61,6.774-7.511,6.774c-3.897,0-7.113-2.969-7.509-6.763c-0.002-0.018-0.003-0.036-0.005-0.053
		c-0.023-0.242-0.037-0.488-0.037-0.736C97.78,18.387,101.168,15,105.331,15z M41.458,41.457c1.426-1.426,3.322-2.211,5.338-2.211
		c2.017,0,3.914,0.786,5.34,2.212c2.944,2.944,2.944,7.735,0,10.679c-1.427,1.427-3.323,2.212-5.34,2.212
		c-2.016,0-3.912-0.786-5.339-2.212c-1.426-1.426-2.211-3.322-2.211-5.339C39.246,44.78,40.031,42.884,41.458,41.457z
		 M22.551,97.781c4.164,0,7.551,3.387,7.551,7.55c0,3.888-2.954,7.096-6.733,7.506c-0.042,0.003-0.083,0.007-0.125,0.011
		c-0.229,0.021-0.458,0.035-0.692,0.035c-4.163,0-7.551-3.388-7.551-7.552C15,101.168,18.387,97.781,22.551,97.781z M41.458,169.204
		c-1.426-1.426-2.212-3.322-2.212-5.339s0.786-3.913,2.213-5.34c0.174-0.174,0.357-0.338,0.544-0.494
		c0.011-0.009,0.023-0.018,0.034-0.027c1.342-1.094,3.005-1.69,4.76-1.69c2.017,0,3.913,0.786,5.339,2.212
		c2.758,2.758,2.932,7.136,0.522,10.1c-0.005,0.005-0.009,0.01-0.014,0.016c-0.159,0.194-0.328,0.382-0.509,0.563
		c-1.426,1.426-3.322,2.212-5.338,2.212S42.884,170.631,41.458,169.204z M105.331,195.662c-4.164,0-7.551-3.387-7.551-7.55
		c0-0.251,0.014-0.499,0.038-0.744c0.001-0.013,0.002-0.026,0.003-0.039c0.393-3.797,3.61-6.769,7.51-6.769
		c3.897,0,7.113,2.968,7.509,6.762c0.002,0.018,0.003,0.036,0.005,0.054c0.023,0.243,0.037,0.488,0.037,0.736
		C112.882,192.275,109.495,195.662,105.331,195.662z M169.205,169.204c-1.426,1.427-3.323,2.212-5.34,2.212
		c-2.017,0-3.913-0.786-5.339-2.212c-2.944-2.944-2.943-7.735,0-10.679c1.426-1.425,3.322-2.21,5.339-2.21
		c1.752,0,3.414,0.594,4.754,1.685c0.016,0.014,0.033,0.026,0.049,0.04c0.185,0.153,0.364,0.314,0.536,0.486
		C172.148,161.47,172.148,166.261,169.205,169.204z"/>
	<path d="M146.184,99.098c0.331-2.092,0.497-4.213,0.497-6.353c0-22.354-18.188-40.541-40.543-40.541
		c-22.355,0-40.542,18.187-40.542,40.541c0,8.683,2.807,17.095,7.874,24.002c-3.503,4.47-5.468,10.024-5.468,15.888
		c0,14.238,11.584,25.822,25.822,25.822c14.238,0,25.822-11.584,25.822-25.822c0-0.378-0.008-0.756-0.024-1.132
		c3.96,4.617,9.824,7.466,16.161,7.466c11.735,0,21.283-9.548,21.283-21.283C157.066,109.731,152.73,102.75,146.184,99.098z
		 M135.783,123.97c-2.794,0-5.276-1.881-6.035-4.574c-0.627-2.223-2.243-4.034-4.382-4.908c-2.138-0.872-4.56-0.713-6.564,0.435
		c-2.832,1.622-5.906,2.67-9.138,3.116c-2.314,0.319-4.347,1.698-5.499,3.73c-1.152,2.032-1.292,4.484-0.378,6.634
		c0.57,1.341,0.859,2.766,0.859,4.234c0,5.967-4.855,10.822-10.822,10.822c-5.967,0-10.822-4.855-10.822-10.822
		c0-3.69,1.867-7.093,4.994-9.102c1.963-1.261,3.227-3.364,3.42-5.689c0.193-2.325-0.707-4.608-2.435-6.175
		c-5.33-4.836-8.386-11.734-8.386-18.924c0-14.084,11.458-25.541,25.542-25.541c14.084,0,25.543,11.458,25.543,25.541
		c0,2.98-0.51,5.902-1.516,8.686c-0.784,2.17-0.525,4.581,0.701,6.535c1.227,1.955,3.285,3.236,5.58,3.474
		c3.204,0.332,5.621,3.018,5.621,6.247C142.066,121.151,139.248,123.97,135.783,123.97z"/>
</g>
<g>
</g>
<g>
</g>
<g>
</g>
<g>
</g>
<g>
</g>
<g>
</g>
<g>
</g>
<g>
</g>
<g>
</g>
<g>
</g>
<g>
</g>
<g>
</g>
<g>
</g>
<g>
</g>
<g>
</g>
</svg>
